<svg xmlns="http://www.w3.org/2000/svg" xmlns:xlink="http://www.w3.org/1999/xlink" contentStyleType="text/css" height="580px" preserveAspectRatio="none" style="width:2651px;height:580px;background:#FFFFFF;" version="1.1" viewBox="0 0 2651 580" width="2651px" zoomAndPan="magnify"><defs><filter height="1" id="b17yv8cynlmk0d0" width="1" x="0" y="0"><feFlood flood-color="#A0522D" result="flood"/><feComposite in="SourceGraphic" in2="flood" operator="over"/></filter><filter height="1" id="b17yv8cynlmk0d1" width="1" x="0" y="0"><feFlood flood-color="#9370DB" result="flood"/><feComposite in="SourceGraphic" in2="flood" operator="over"/></filter><filter height="1" id="b17yv8cynlmk0d2" width="1" x="0" y="0"><feFlood flood-color="#FEE599" result="flood"/><feComposite in="SourceGraphic" in2="flood" operator="over"/></filter><filter height="1" id="b17yv8cynlmk0d3" width="1" x="0" y="0"><feFlood flood-color="#E0FFFF" result="flood"/><feComposite in="SourceGraphic" in2="flood" operator="over"/></filter><filter height="1" id="b17yv8cynlmk0d4" width="1" x="0" y="0"><feFlood flood-color="#E2EFD9" result="flood"/><feComposite in="SourceGraphic" in2="flood" operator="over"/></filter><filter height="1" id="b17yv8cynlmk0d5" width="1" x="0" y="0"><feFlood flood-color="#7FFFD4" result="flood"/><feComposite in="SourceGraphic" in2="flood" operator="over"/></filter><filter height="1" id="b17yv8cynlmk0d6" width="1" x="0" y="0"><feFlood flood-color="#FFC0CB" result="flood"/><feComposite in="SourceGraphic" in2="flood" operator="over"/></filter></defs><g><rect fill="#DDDDDD" height="144.375" id="_legend" rx="7.5" ry="7.5" style="stroke:#000000;stroke-width:1.0;" width="288.6396" x="1174.3804" y="12"/><text fill="#000000" font-family="Arial" font-size="14" font-weight="bold" lengthAdjust="spacing" textLength="51.208" x="1218.3726" y="31.9951">Object</text><text fill="#000000" font-family="Arial" font-size="14" font-weight="bold" lengthAdjust="spacing" textLength="49.5469" x="1351.4272" y="31.9951">Colors</text><text fill="#000000" font-family="Arial" font-size="14" lengthAdjust="spacing" textLength="105.082" x="1183.8306" y="48.292">Microcontroller</text><text fill="#000000" filter="url(#b17yv8cynlmk0d0)" font-family="Arial" font-size="14" lengthAdjust="spacing" textLength="160.207" x="1297.813" y="48.292">&#160;&#160;&#160;&#160;&#160;&#160;&#160;&#160;&#160;&#160;&#160;&#160;&#160;&#160;&#160;&#160;&#160;&#160;&#160;&#160;&#160;&#160;&#160;&#160;&#160;&#160;&#160;&#160;&#160;&#160;&#160;&#160;&#160;&#160;&#160;&#160;</text><text fill="#000000" font-family="Arial" font-size="14" lengthAdjust="spacing" textLength="52.2061" x="1183.8306" y="64.5889">System</text><text fill="#000000" filter="url(#b17yv8cynlmk0d1)" font-family="Arial" font-size="14" lengthAdjust="spacing" textLength="160.207" x="1297.813" y="64.5889">&#160;&#160;&#160;&#160;&#160;&#160;&#160;&#160;&#160;&#160;&#160;&#160;&#160;&#160;&#160;&#160;&#160;&#160;&#160;&#160;&#160;&#160;&#160;&#160;&#160;&#160;&#160;&#160;&#160;&#160;&#160;&#160;&#160;&#160;&#160;&#160;</text><text fill="#000000" font-family="Arial" font-size="14" lengthAdjust="spacing" textLength="39.0332" x="1183.8306" y="80.8857">Layer</text><text fill="#000000" filter="url(#b17yv8cynlmk0d2)" font-family="Arial" font-size="14" lengthAdjust="spacing" textLength="160.207" x="1297.813" y="80.8857">&#160;&#160;&#160;&#160;&#160;&#160;&#160;&#160;&#160;&#160;&#160;&#160;&#160;&#160;&#160;&#160;&#160;&#160;&#160;&#160;&#160;&#160;&#160;&#160;&#160;&#160;&#160;&#160;&#160;&#160;&#160;&#160;&#160;&#160;&#160;&#160;</text><text fill="#000000" font-family="Arial" font-size="14" lengthAdjust="spacing" textLength="81.2793" x="1183.8306" y="97.1826">Component</text><text fill="#000000" filter="url(#b17yv8cynlmk0d3)" font-family="Arial" font-size="14" lengthAdjust="spacing" textLength="160.207" x="1297.813" y="97.1826">&#160;&#160;&#160;&#160;&#160;&#160;&#160;&#160;&#160;&#160;&#160;&#160;&#160;&#160;&#160;&#160;&#160;&#160;&#160;&#160;&#160;&#160;&#160;&#160;&#160;&#160;&#160;&#160;&#160;&#160;&#160;&#160;&#160;&#160;&#160;&#160;</text><text fill="#000000" font-family="Arial" font-size="14" lengthAdjust="spacing" textLength="50.9072" x="1183.8306" y="113.4795">Module</text><text fill="#000000" filter="url(#b17yv8cynlmk0d4)" font-family="Arial" font-size="14" lengthAdjust="spacing" textLength="160.207" x="1297.813" y="113.4795">&#160;&#160;&#160;&#160;&#160;&#160;&#160;&#160;&#160;&#160;&#160;&#160;&#160;&#160;&#160;&#160;&#160;&#160;&#160;&#160;&#160;&#160;&#160;&#160;&#160;&#160;&#160;&#160;&#160;&#160;&#160;&#160;&#160;&#160;&#160;&#160;</text><text fill="#000000" font-family="Arial" font-size="14" lengthAdjust="spacing" textLength="28.499" x="1183.8306" y="129.7764">Uint</text><text fill="#000000" filter="url(#b17yv8cynlmk0d5)" font-family="Arial" font-size="14" lengthAdjust="spacing" textLength="160.207" x="1297.813" y="129.7764">&#160;&#160;&#160;&#160;&#160;&#160;&#160;&#160;&#160;&#160;&#160;&#160;&#160;&#160;&#160;&#160;&#160;&#160;&#160;&#160;&#160;&#160;&#160;&#160;&#160;&#160;&#160;&#160;&#160;&#160;&#160;&#160;&#160;&#160;&#160;&#160;</text><text fill="#000000" font-family="Arial" font-size="14" lengthAdjust="spacing" textLength="29.5996" x="1183.8306" y="146.0732">Tiny</text><text fill="#000000" filter="url(#b17yv8cynlmk0d6)" font-family="Arial" font-size="14" lengthAdjust="spacing" textLength="160.207" x="1297.813" y="146.0732">&#160;&#160;&#160;&#160;&#160;&#160;&#160;&#160;&#160;&#160;&#160;&#160;&#160;&#160;&#160;&#160;&#160;&#160;&#160;&#160;&#160;&#160;&#160;&#160;&#160;&#160;&#160;&#160;&#160;&#160;&#160;&#160;&#160;&#160;&#160;&#160;</text><line style="stroke:#000000;stroke-width:1.0;" x1="1179.3804" x2="1458.02" y1="19" y2="19"/><line style="stroke:#000000;stroke-width:1.0;" x1="1179.3804" x2="1458.02" y1="35.2969" y2="35.2969"/><line style="stroke:#000000;stroke-width:1.0;" x1="1179.3804" x2="1458.02" y1="51.5938" y2="51.5938"/><line style="stroke:#000000;stroke-width:1.0;" x1="1179.3804" x2="1458.02" y1="67.8906" y2="67.8906"/><line style="stroke:#000000;stroke-width:1.0;" x1="1179.3804" x2="1458.02" y1="84.1875" y2="84.1875"/><line style="stroke:#000000;stroke-width:1.0;" x1="1179.3804" x2="1458.02" y1="100.4844" y2="100.4844"/><line style="stroke:#000000;stroke-width:1.0;" x1="1179.3804" x2="1458.02" y1="116.7813" y2="116.7813"/><line style="stroke:#000000;stroke-width:1.0;" x1="1179.3804" x2="1458.02" y1="133.0781" y2="133.0781"/><line style="stroke:#000000;stroke-width:1.0;" x1="1179.3804" x2="1458.02" y1="149.375" y2="149.375"/><line style="stroke:#000000;stroke-width:1.0;" x1="1179.3804" x2="1179.3804" y1="19" y2="149.375"/><line style="stroke:#000000;stroke-width:1.0;" x1="1297.813" x2="1297.813" y1="19" y2="149.375"/><line style="stroke:#000000;stroke-width:1.0;" x1="1458.02" x2="1458.02" y1="19" y2="149.375"/><!--entity SYS_Sw--><g id="elem_SYS_Sw"><rect fill="#9370DB" height="57.9375" rx="2.5" ry="2.5" style="stroke:#181818;stroke-width:0.5;" width="107.3184" x="1852.04" y="176.375"/><rect fill="#9370DB" height="10" style="stroke:#181818;stroke-width:0.5;" width="15" x="1939.3584" y="181.375"/><rect fill="#9370DB" height="2" style="stroke:#181818;stroke-width:0.5;" width="4" x="1937.3584" y="183.375"/><rect fill="#9370DB" height="2" style="stroke:#181818;stroke-width:0.5;" width="4" x="1937.3584" y="187.375"/><text fill="#000000" font-family="Arial" font-size="12" lengthAdjust="spacing" textLength="67.3184" x="1867.04" y="207.5137">SYSAD_xxx</text><text fill="#000000" font-family="Arial" font-size="12" lengthAdjust="spacing" textLength="53.373" x="1867.04" y="221.4824">Software</text></g><!--entity LAYER_Swc--><g id="elem_LAYER_Swc"><rect fill="#FEE599" height="43.9688" rx="2.5" ry="2.5" style="stroke:#181818;stroke-width:0.5;" width="105.1328" x="1243.13" y="294.315"/><rect fill="#FEE599" height="10" style="stroke:#181818;stroke-width:0.5;" width="15" x="1328.2628" y="299.315"/><rect fill="#FEE599" height="2" style="stroke:#181818;stroke-width:0.5;" width="4" x="1326.2628" y="301.315"/><rect fill="#FEE599" height="2" style="stroke:#181818;stroke-width:0.5;" width="4" x="1326.2628" y="305.315"/><text fill="#000000" font-family="Arial" font-size="12" lengthAdjust="spacing" textLength="65.1328" x="1258.13" y="325.4537">SWC Layer</text></g><!--entity LAYER_Bsw--><g id="elem_LAYER_Bsw"><rect fill="#FEE599" height="43.9688" rx="2.5" ry="2.5" style="stroke:#181818;stroke-width:0.5;" width="104.9863" x="1853.21" y="294.315"/><rect fill="#FEE599" height="10" style="stroke:#181818;stroke-width:0.5;" width="15" x="1938.1963" y="299.315"/><rect fill="#FEE599" height="2" style="stroke:#181818;stroke-width:0.5;" width="4" x="1936.1963" y="301.315"/><rect fill="#FEE599" height="2" style="stroke:#181818;stroke-width:0.5;" width="4" x="1936.1963" y="305.315"/><text fill="#000000" font-family="Arial" font-size="12" lengthAdjust="spacing" textLength="64.9863" x="1868.21" y="325.4537">BSW Layer</text></g><!--entity LAYER_Mcal--><g id="elem_LAYER_Mcal"><rect fill="#FEE599" height="43.9688" rx="2.5" ry="2.5" style="stroke:#181818;stroke-width:0.5;" width="110.8984" x="2195.25" y="294.315"/><rect fill="#FEE599" height="10" style="stroke:#181818;stroke-width:0.5;" width="15" x="2286.1484" y="299.315"/><rect fill="#FEE599" height="2" style="stroke:#181818;stroke-width:0.5;" width="4" x="2284.1484" y="301.315"/><rect fill="#FEE599" height="2" style="stroke:#181818;stroke-width:0.5;" width="4" x="2284.1484" y="305.315"/><text fill="#000000" font-family="Arial" font-size="12" lengthAdjust="spacing" textLength="70.8984" x="2210.25" y="325.4537">MCAL Layer</text></g><!--entity COMP_App--><g id="elem_COMP_App"><rect fill="#E0FFFF" height="57.9375" rx="2.5" ry="2.5" style="stroke:#181818;stroke-width:0.5;" width="107.0488" x="625.18" y="398.275"/><rect fill="#E0FFFF" height="10" style="stroke:#181818;stroke-width:0.5;" width="15" x="712.2288" y="403.275"/><rect fill="#E0FFFF" height="2" style="stroke:#181818;stroke-width:0.5;" width="4" x="710.2288" y="405.275"/><rect fill="#E0FFFF" height="2" style="stroke:#181818;stroke-width:0.5;" width="4" x="710.2288" y="409.275"/><text fill="#000000" font-family="Arial" font-size="12" lengthAdjust="spacing" textLength="64.166" x="640.18" y="429.4137">SWAD-001</text><text fill="#000000" font-family="Arial" font-size="12" lengthAdjust="spacing" textLength="67.0488" x="640.18" y="443.3824">Application</text></g><!--entity COMP_Service--><g id="elem_COMP_Service"><rect fill="#E0FFFF" height="57.9375" rx="2.5" ry="2.5" style="stroke:#181818;stroke-width:0.5;" width="104.166" x="1535.62" y="398.275"/><rect fill="#E0FFFF" height="10" style="stroke:#181818;stroke-width:0.5;" width="15" x="1619.786" y="403.275"/><rect fill="#E0FFFF" height="2" style="stroke:#181818;stroke-width:0.5;" width="4" x="1617.786" y="405.275"/><rect fill="#E0FFFF" height="2" style="stroke:#181818;stroke-width:0.5;" width="4" x="1617.786" y="409.275"/><text fill="#000000" font-family="Arial" font-size="12" lengthAdjust="spacing" textLength="64.166" x="1550.62" y="429.4137">SWAD-002</text><text fill="#000000" font-family="Arial" font-size="12" lengthAdjust="spacing" textLength="44.3496" x="1550.62" y="443.3824">Service</text></g><!--entity COMP_Hal--><g id="elem_COMP_Hal"><rect fill="#E0FFFF" height="57.9375" rx="2.5" ry="2.5" style="stroke:#181818;stroke-width:0.5;" width="104.166" x="1853.62" y="398.275"/><rect fill="#E0FFFF" height="10" style="stroke:#181818;stroke-width:0.5;" width="15" x="1937.786" y="403.275"/><rect fill="#E0FFFF" height="2" style="stroke:#181818;stroke-width:0.5;" width="4" x="1935.786" y="405.275"/><rect fill="#E0FFFF" height="2" style="stroke:#181818;stroke-width:0.5;" width="4" x="1935.786" y="409.275"/><text fill="#000000" font-family="Arial" font-size="12" lengthAdjust="spacing" textLength="64.166" x="1868.62" y="429.4137">SWAD-003</text><text fill="#000000" font-family="Arial" font-size="12" lengthAdjust="spacing" textLength="23.918" x="1868.62" y="443.3824">HAL</text></g><!--entity COMP_Os--><g id="elem_COMP_Os"><rect fill="#E0FFFF" height="57.9375" rx="2.5" ry="2.5" style="stroke:#181818;stroke-width:0.5;" width="104.166" x="2047.62" y="398.275"/><rect fill="#E0FFFF" height="10" style="stroke:#181818;stroke-width:0.5;" width="15" x="2131.786" y="403.275"/><rect fill="#E0FFFF" height="2" style="stroke:#181818;stroke-width:0.5;" width="4" x="2129.786" y="405.275"/><rect fill="#E0FFFF" height="2" style="stroke:#181818;stroke-width:0.5;" width="4" x="2129.786" y="409.275"/><text fill="#000000" font-family="Arial" font-size="12" lengthAdjust="spacing" textLength="64.166" x="2062.62" y="429.4137">SWAD-004</text><text fill="#000000" font-family="Arial" font-size="12" lengthAdjust="spacing" textLength="17.0625" x="2062.62" y="443.3824">OS</text></g><!--entity COMP_Drv--><g id="elem_COMP_Drv"><rect fill="#E0FFFF" height="43.9688" rx="2.5" ry="2.5" style="stroke:#181818;stroke-width:0.5;" width="151.1582" x="2323.12" y="405.265"/><rect fill="#E0FFFF" height="10" style="stroke:#181818;stroke-width:0.5;" width="15" x="2454.2782" y="410.265"/><rect fill="#E0FFFF" height="2" style="stroke:#181818;stroke-width:0.5;" width="4" x="2452.2782" y="412.265"/><rect fill="#E0FFFF" height="2" style="stroke:#181818;stroke-width:0.5;" width="4" x="2452.2782" y="416.265"/><text fill="#000000" font-family="Arial" font-size="12" lengthAdjust="spacing" textLength="111.1582" x="2338.12" y="436.4037">SWAD-005 Drivers</text></g><!--entity MOD_Main--><g id="elem_MOD_Main"><rect fill="#E2EFD9" height="57.9375" rx="2.5" ry="2.5" style="stroke:#181818;stroke-width:0.5;" width="131.4004" x="7" y="516.215"/><rect fill="#E2EFD9" height="10" style="stroke:#181818;stroke-width:0.5;" width="15" x="118.4004" y="521.215"/><rect fill="#E2EFD9" height="2" style="stroke:#181818;stroke-width:0.5;" width="4" x="116.4004" y="523.215"/><rect fill="#E2EFD9" height="2" style="stroke:#181818;stroke-width:0.5;" width="4" x="116.4004" y="527.215"/><text fill="#000000" font-family="Arial" font-size="12" lengthAdjust="spacing" textLength="91.4004" x="22" y="547.3537">SWAD-001-001</text><text fill="#000000" font-family="Arial" font-size="12" lengthAdjust="spacing" textLength="28.6465" x="22" y="561.3224">Main</text></g><!--entity MOD_APP_Init--><g id="elem_MOD_APP_Init"><rect fill="#E2EFD9" height="57.9375" rx="2.5" ry="2.5" style="stroke:#181818;stroke-width:0.5;" width="145.9258" x="173.74" y="516.215"/><rect fill="#E2EFD9" height="10" style="stroke:#181818;stroke-width:0.5;" width="15" x="299.6658" y="521.215"/><rect fill="#E2EFD9" height="2" style="stroke:#181818;stroke-width:0.5;" width="4" x="297.6658" y="523.215"/><rect fill="#E2EFD9" height="2" style="stroke:#181818;stroke-width:0.5;" width="4" x="297.6658" y="527.215"/><text fill="#000000" font-family="Arial" font-size="12" lengthAdjust="spacing" textLength="91.4004" x="188.74" y="547.3537">SWAD-001-002</text><text fill="#000000" font-family="Arial" font-size="12" lengthAdjust="spacing" textLength="105.9258" x="188.74" y="561.3224">APPs Initialization</text></g><!--entity MOD_APP_PinIOsSening--><g id="elem_MOD_APP_PinIOsSening"><rect fill="#E2EFD9" height="57.9375" rx="2.5" ry="2.5" style="stroke:#181818;stroke-width:0.5;" width="131.4004" x="355" y="516.215"/><rect fill="#E2EFD9" height="10" style="stroke:#181818;stroke-width:0.5;" width="15" x="466.4004" y="521.215"/><rect fill="#E2EFD9" height="2" style="stroke:#181818;stroke-width:0.5;" width="4" x="464.4004" y="523.215"/><rect fill="#E2EFD9" height="2" style="stroke:#181818;stroke-width:0.5;" width="4" x="464.4004" y="527.215"/><text fill="#000000" font-family="Arial" font-size="12" lengthAdjust="spacing" textLength="91.4004" x="370" y="547.3537">SWAD-001-003</text><text fill="#000000" font-family="Arial" font-size="12" lengthAdjust="spacing" textLength="88.6406" x="370" y="561.3224">PinIOs Sensing</text></g><!--entity MOD_APP_Sm--><g id="elem_MOD_APP_Sm"><rect fill="#E2EFD9" height="57.9375" rx="2.5" ry="2.5" style="stroke:#181818;stroke-width:0.5;" width="131.4004" x="521" y="516.215"/><rect fill="#E2EFD9" height="10" style="stroke:#181818;stroke-width:0.5;" width="15" x="632.4004" y="521.215"/><rect fill="#E2EFD9" height="2" style="stroke:#181818;stroke-width:0.5;" width="4" x="630.4004" y="523.215"/><rect fill="#E2EFD9" height="2" style="stroke:#181818;stroke-width:0.5;" width="4" x="630.4004" y="527.215"/><text fill="#000000" font-family="Arial" font-size="12" lengthAdjust="spacing" textLength="91.4004" x="536" y="547.3537">SWAD-001-004</text><text fill="#000000" font-family="Arial" font-size="12" lengthAdjust="spacing" textLength="85.8105" x="536" y="561.3224">State Machine</text></g><!--entity MOD_APP_RtosApp--><g id="elem_MOD_APP_RtosApp"><rect fill="#E2EFD9" height="57.9375" rx="2.5" ry="2.5" style="stroke:#181818;stroke-width:0.5;" width="167.5176" x="686.94" y="516.215"/><rect fill="#E2EFD9" height="10" style="stroke:#181818;stroke-width:0.5;" width="15" x="834.4576" y="521.215"/><rect fill="#E2EFD9" height="2" style="stroke:#181818;stroke-width:0.5;" width="4" x="832.4576" y="523.215"/><rect fill="#E2EFD9" height="2" style="stroke:#181818;stroke-width:0.5;" width="4" x="832.4576" y="527.215"/><text fill="#000000" font-family="Arial" font-size="12" lengthAdjust="spacing" textLength="91.4004" x="701.94" y="547.3537">SWAD-001-005</text><text fill="#000000" font-family="Arial" font-size="12" lengthAdjust="spacing" textLength="127.5176" x="701.94" y="561.3224">freeRTOS Application</text></g><!--entity MOD_APP_TaskSch--><g id="elem_MOD_APP_TaskSch"><rect fill="#E2EFD9" height="57.9375" rx="2.5" ry="2.5" style="stroke:#181818;stroke-width:0.5;" width="153.2324" x="889.08" y="516.215"/><rect fill="#E2EFD9" height="10" style="stroke:#181818;stroke-width:0.5;" width="15" x="1022.3124" y="521.215"/><rect fill="#E2EFD9" height="2" style="stroke:#181818;stroke-width:0.5;" width="4" x="1020.3124" y="523.215"/><rect fill="#E2EFD9" height="2" style="stroke:#181818;stroke-width:0.5;" width="4" x="1020.3124" y="527.215"/><text fill="#000000" font-family="Arial" font-size="12" lengthAdjust="spacing" textLength="91.4004" x="904.08" y="547.3537">SWAD-001-006</text><text fill="#000000" font-family="Arial" font-size="12" lengthAdjust="spacing" textLength="113.2324" x="904.08" y="561.3224">Task and Schedule</text></g><!--entity MOD_APP_ClkConfig--><g id="elem_MOD_APP_ClkConfig"><rect fill="#E2EFD9" height="57.9375" rx="2.5" ry="2.5" style="stroke:#181818;stroke-width:0.5;" width="160.2109" x="1077.59" y="516.215"/><rect fill="#E2EFD9" height="10" style="stroke:#181818;stroke-width:0.5;" width="15" x="1217.8009" y="521.215"/><rect fill="#E2EFD9" height="2" style="stroke:#181818;stroke-width:0.5;" width="4" x="1215.8009" y="523.215"/><rect fill="#E2EFD9" height="2" style="stroke:#181818;stroke-width:0.5;" width="4" x="1215.8009" y="527.215"/><text fill="#000000" font-family="Arial" font-size="12" lengthAdjust="spacing" textLength="91.4004" x="1092.59" y="547.3537">SWAD-001-007</text><text fill="#000000" font-family="Arial" font-size="12" lengthAdjust="spacing" textLength="120.2109" x="1092.59" y="561.3224">Clock Source Config</text></g><!--entity MOD_SERVICE_Uds--><g id="elem_MOD_SERVICE_Uds"><rect fill="#E2EFD9" height="57.9375" rx="2.5" ry="2.5" style="stroke:#181818;stroke-width:0.5;" width="131.4004" x="1273" y="516.215"/><rect fill="#E2EFD9" height="10" style="stroke:#181818;stroke-width:0.5;" width="15" x="1384.4004" y="521.215"/><rect fill="#E2EFD9" height="2" style="stroke:#181818;stroke-width:0.5;" width="4" x="1382.4004" y="523.215"/><rect fill="#E2EFD9" height="2" style="stroke:#181818;stroke-width:0.5;" width="4" x="1382.4004" y="527.215"/><text fill="#000000" font-family="Arial" font-size="12" lengthAdjust="spacing" textLength="91.4004" x="1288" y="547.3537">SWAD-002-001</text><text fill="#000000" font-family="Arial" font-size="12" lengthAdjust="spacing" textLength="25.6406" x="1288" y="561.3224">UDS</text></g><!--entity MOD_SERVICE_FuSa--><g id="elem_MOD_SERVICE_FuSa"><rect fill="#E2EFD9" height="57.9375" rx="2.5" ry="2.5" style="stroke:#181818;stroke-width:0.5;" width="131.4004" x="1439" y="516.215"/><rect fill="#E2EFD9" height="10" style="stroke:#181818;stroke-width:0.5;" width="15" x="1550.4004" y="521.215"/><rect fill="#E2EFD9" height="2" style="stroke:#181818;stroke-width:0.5;" width="4" x="1548.4004" y="523.215"/><rect fill="#E2EFD9" height="2" style="stroke:#181818;stroke-width:0.5;" width="4" x="1548.4004" y="527.215"/><text fill="#000000" font-family="Arial" font-size="12" lengthAdjust="spacing" textLength="91.4004" x="1454" y="547.3537">SWAD-002-002</text><text fill="#000000" font-family="Arial" font-size="12" lengthAdjust="spacing" textLength="29.4785" x="1454" y="561.3224">FuSa</text></g><!--entity MOD_SERVICE_Security--><g id="elem_MOD_SERVICE_Security"><rect fill="#E2EFD9" height="57.9375" rx="2.5" ry="2.5" style="stroke:#181818;stroke-width:0.5;" width="131.4004" x="1605" y="516.215"/><rect fill="#E2EFD9" height="10" style="stroke:#181818;stroke-width:0.5;" width="15" x="1716.4004" y="521.215"/><rect fill="#E2EFD9" height="2" style="stroke:#181818;stroke-width:0.5;" width="4" x="1714.4004" y="523.215"/><rect fill="#E2EFD9" height="2" style="stroke:#181818;stroke-width:0.5;" width="4" x="1714.4004" y="527.215"/><text fill="#000000" font-family="Arial" font-size="12" lengthAdjust="spacing" textLength="91.4004" x="1620" y="547.3537">SWAD-002-003</text><text fill="#000000" font-family="Arial" font-size="12" lengthAdjust="spacing" textLength="49.2773" x="1620" y="561.3224">Security</text></g><!--entity MOD_HAL_ClkConfig--><g id="elem_MOD_HAL_ClkConfig"><rect fill="#E2EFD9" height="57.9375" rx="2.5" ry="2.5" style="stroke:#181818;stroke-width:0.5;" width="160.2109" x="1771.59" y="516.215"/><rect fill="#E2EFD9" height="10" style="stroke:#181818;stroke-width:0.5;" width="15" x="1911.8009" y="521.215"/><rect fill="#E2EFD9" height="2" style="stroke:#181818;stroke-width:0.5;" width="4" x="1909.8009" y="523.215"/><rect fill="#E2EFD9" height="2" style="stroke:#181818;stroke-width:0.5;" width="4" x="1909.8009" y="527.215"/><text fill="#000000" font-family="Arial" font-size="12" lengthAdjust="spacing" textLength="91.4004" x="1786.59" y="547.3537">SWAD-003-001</text><text fill="#000000" font-family="Arial" font-size="12" lengthAdjust="spacing" textLength="120.2109" x="1786.59" y="561.3224">Clock Source Config</text></g><!--entity MOD_HAL_PinIOsSensing--><g id="elem_MOD_HAL_PinIOsSensing"><rect fill="#E2EFD9" height="57.9375" rx="2.5" ry="2.5" style="stroke:#181818;stroke-width:0.5;" width="131.4004" x="1967" y="516.215"/><rect fill="#E2EFD9" height="10" style="stroke:#181818;stroke-width:0.5;" width="15" x="2078.4004" y="521.215"/><rect fill="#E2EFD9" height="2" style="stroke:#181818;stroke-width:0.5;" width="4" x="2076.4004" y="523.215"/><rect fill="#E2EFD9" height="2" style="stroke:#181818;stroke-width:0.5;" width="4" x="2076.4004" y="527.215"/><text fill="#000000" font-family="Arial" font-size="12" lengthAdjust="spacing" textLength="91.4004" x="1982" y="547.3537">SWAD-003-002</text><text fill="#000000" font-family="Arial" font-size="12" lengthAdjust="spacing" textLength="88.6406" x="1982" y="561.3224">PinIOs Sensing</text></g><!--entity MOD_Rtos_Modules--><g id="elem_MOD_Rtos_Modules"><rect fill="#E2EFD9" height="43.9688" rx="2.5" ry="2.5" style="stroke:#181818;stroke-width:0.5;" width="150.3555" x="2133.52" y="523.205"/><rect fill="#E2EFD9" height="10" style="stroke:#181818;stroke-width:0.5;" width="15" x="2263.8755" y="528.205"/><rect fill="#E2EFD9" height="2" style="stroke:#181818;stroke-width:0.5;" width="4" x="2261.8755" y="530.205"/><rect fill="#E2EFD9" height="2" style="stroke:#181818;stroke-width:0.5;" width="4" x="2261.8755" y="534.205"/><text fill="#000000" font-family="Arial" font-size="12" lengthAdjust="spacing" textLength="110.3555" x="2148.52" y="554.3437">freeRTOS Modules</text></g><!--entity MOD_DRIVERS_ClkConfig--><g id="elem_MOD_DRIVERS_ClkConfig"><rect fill="#E2EFD9" height="57.9375" rx="2.5" ry="2.5" style="stroke:#181818;stroke-width:0.5;" width="160.2109" x="2318.59" y="516.215"/><rect fill="#E2EFD9" height="10" style="stroke:#181818;stroke-width:0.5;" width="15" x="2458.8009" y="521.215"/><rect fill="#E2EFD9" height="2" style="stroke:#181818;stroke-width:0.5;" width="4" x="2456.8009" y="523.215"/><rect fill="#E2EFD9" height="2" style="stroke:#181818;stroke-width:0.5;" width="4" x="2456.8009" y="527.215"/><text fill="#000000" font-family="Arial" font-size="12" lengthAdjust="spacing" textLength="91.4004" x="2333.59" y="547.3537">SWAD-005-001</text><text fill="#000000" font-family="Arial" font-size="12" lengthAdjust="spacing" textLength="120.2109" x="2333.59" y="561.3224">Clock Source Config</text></g><!--entity MOD_DRIVERS_PinIOsSensing--><g id="elem_MOD_DRIVERS_PinIOsSensing"><rect fill="#E2EFD9" height="57.9375" rx="2.5" ry="2.5" style="stroke:#181818;stroke-width:0.5;" width="131.4004" x="2514" y="516.215"/><rect fill="#E2EFD9" height="10" style="stroke:#181818;stroke-width:0.5;" width="15" x="2625.4004" y="521.215"/><rect fill="#E2EFD9" height="2" style="stroke:#181818;stroke-width:0.5;" width="4" x="2623.4004" y="523.215"/><rect fill="#E2EFD9" height="2" style="stroke:#181818;stroke-width:0.5;" width="4" x="2623.4004" y="527.215"/><text fill="#000000" font-family="Arial" font-size="12" lengthAdjust="spacing" textLength="91.4004" x="2529" y="547.3537">SWAD-005-002</text><text fill="#000000" font-family="Arial" font-size="12" lengthAdjust="spacing" textLength="88.6406" x="2529" y="561.3224">PinIOs Sensing</text></g><!--link SYS_Sw to LAYER_Swc--><g id="link_SYS_Sw_LAYER_Swc"><path d="M1851.57,216.015 C1735.37,236.765 1469.2265,284.2997 1354.3165,304.8297 " fill="none" id="SYS_Sw-to-LAYER_Swc" style="stroke:#181818;stroke-width:1.0;"/><polygon fill="#181818" points="1348.41,305.885,1357.9732,308.2398,1353.3321,305.0056,1356.5662,300.3645,1348.41,305.885" style="stroke:#181818;stroke-width:1.0;"/></g><!--link SYS_Sw to LAYER_Bsw--><g id="link_SYS_Sw_LAYER_Bsw"><path d="M1905.7,234.685 C1905.7,253.225 1905.7,271.045 1905.7,287.985 " fill="none" id="SYS_Sw-to-LAYER_Bsw" style="stroke:#181818;stroke-width:1.0;"/><polygon fill="#181818" points="1905.7,293.985,1909.7,284.985,1905.7,288.985,1901.7,284.985,1905.7,293.985" style="stroke:#181818;stroke-width:1.0;"/></g><!--link SYS_Sw to LAYER_Mcal--><g id="link_SYS_Sw_LAYER_Mcal"><path d="M1959.61,223.365 C2023.66,243.595 2124.2785,275.3683 2189.1685,295.8583 " fill="none" id="SYS_Sw-to-LAYER_Mcal" style="stroke:#181818;stroke-width:1.0;"/><polygon fill="#181818" points="2194.89,297.665,2187.5121,291.1407,2190.1221,296.1594,2185.1033,298.7694,2194.89,297.665" style="stroke:#181818;stroke-width:1.0;"/></g><!--link LAYER_Swc to COMP_App--><g id="link_LAYER_Swc_COMP_App"><path d="M1242.83,326.635 C1126.52,347.175 855.4286,395.0415 738.3386,415.7215 " fill="none" id="LAYER_Swc-to-COMP_App" style="stroke:#181818;stroke-width:1.0;"/><polygon fill="#181818" points="732.43,416.765,741.9885,419.1387,737.3538,415.8954,740.5971,411.2606,732.43,416.765" style="stroke:#181818;stroke-width:1.0;"/></g><!--link LAYER_Bsw to COMP_Service--><g id="link_LAYER_Bsw_COMP_Service"><path d="M1852.83,335.405 C1793.84,355.615 1704.6659,386.1696 1645.8459,406.3296 " fill="none" id="LAYER_Bsw-to-COMP_Service" style="stroke:#181818;stroke-width:1.0;"/><polygon fill="#181818" points="1640.17,408.275,1649.9807,409.1409,1644.8999,406.6539,1647.3869,401.5731,1640.17,408.275" style="stroke:#181818;stroke-width:1.0;"/></g><!--link LAYER_Bsw to COMP_Hal--><g id="link_LAYER_Bsw_COMP_Hal"><path d="M1905.7,338.565 C1905.7,355.525 1905.7,373.445 1905.7,392.025 " fill="none" id="LAYER_Bsw-to-COMP_Hal" style="stroke:#181818;stroke-width:1.0;"/><polygon fill="#181818" points="1905.7,398.025,1909.7,389.025,1905.7,393.025,1901.7,389.025,1905.7,398.025" style="stroke:#181818;stroke-width:1.0;"/></g><!--link LAYER_Bsw to COMP_Os--><g id="link_LAYER_Bsw_COMP_Os"><path d="M1943.57,338.565 C1973.67,355.465 2010.8283,376.3375 2043.8483,394.8775 " fill="none" id="LAYER_Bsw-to-COMP_Os" style="stroke:#181818;stroke-width:1.0;"/><polygon fill="#181818" points="2049.08,397.815,2043.1907,389.9209,2044.7202,395.3671,2039.2741,396.8966,2049.08,397.815" style="stroke:#181818;stroke-width:1.0;"/></g><!--link LAYER_Mcal to COMP_Drv--><g id="link_LAYER_Mcal_COMP_Drv"><path d="M2279.59,338.565 C2305.58,357.695 2338.7484,382.1176 2364.7984,401.2976 " fill="none" id="LAYER_Mcal-to-COMP_Drv" style="stroke:#181818;stroke-width:1.0;"/><polygon fill="#181818" points="2369.63,404.855,2364.7542,396.2978,2365.6036,401.8905,2360.0109,402.74,2369.63,404.855" style="stroke:#181818;stroke-width:1.0;"/></g><!--link COMP_App to MOD_Main--><g id="link_COMP_App_MOD_Main"><path d="M624.78,434.545 C529.44,446.285 325.24,474.225 156.7,516.215 C150.73,517.705 150.3318,517.6973 144.2018,519.5173 " fill="none" id="COMP_App-to-MOD_Main" style="stroke:#181818;stroke-width:1.0;"/><polygon fill="#181818" points="138.45,521.225,148.2162,522.498,143.2432,519.8019,145.9393,514.8289,138.45,521.225" style="stroke:#181818;stroke-width:1.0;"/></g><!--link COMP_App to MOD_APP_Init--><g id="link_COMP_App_MOD_APP_Init"><path d="M624.75,441.355 C557.35,457.915 438.61,487.715 337.7,516.215 C331.97,517.835 331.8154,517.8594 325.8754,519.6094 " fill="none" id="COMP_App-to-MOD_APP_Init" style="stroke:#181818;stroke-width:1.0;"/><polygon fill="#181818" points="320.12,521.305,329.8835,522.5985,324.9162,519.892,327.6227,514.9246,320.12,521.305" style="stroke:#181818;stroke-width:1.0;"/></g><!--link COMP_App to MOD_APP_PinIOsSening--><g id="link_COMP_App_MOD_APP_PinIOsSening"><path d="M624.93,452.415 C583.87,470.865 532.6626,493.8753 489.4326,513.3053 " fill="none" id="COMP_App-to-MOD_APP_PinIOsSening" style="stroke:#181818;stroke-width:1.0;"/><polygon fill="#181818" points="483.96,515.765,493.8088,515.7239,488.5205,513.7152,490.5292,508.427,483.96,515.765" style="stroke:#181818;stroke-width:1.0;"/></g><!--link COMP_App to MOD_APP_Sm--><g id="link_COMP_App_MOD_APP_Sm"><path d="M656.19,456.615 C641.83,474.715 627.0204,493.3756 612.7004,511.4156 " fill="none" id="COMP_App-to-MOD_APP_Sm" style="stroke:#181818;stroke-width:1.0;"/><polygon fill="#181818" points="608.97,516.115,617.6985,511.5528,612.0786,512.1988,611.4326,506.579,608.97,516.115" style="stroke:#181818;stroke-width:1.0;"/></g><!--link COMP_App to MOD_APP_RtosApp--><g id="link_COMP_App_MOD_APP_RtosApp"><path d="M701.21,456.615 C715.57,474.715 730.3796,493.3756 744.6996,511.4156 " fill="none" id="COMP_App-to-MOD_APP_RtosApp" style="stroke:#181818;stroke-width:1.0;"/><polygon fill="#181818" points="748.43,516.115,745.9674,506.579,745.3214,512.1988,739.7015,511.5528,748.43,516.115" style="stroke:#181818;stroke-width:1.0;"/></g><!--link COMP_App to MOD_APP_TaskSch--><g id="link_COMP_App_MOD_APP_TaskSch"><path d="M732.68,450.055 C778.72,468.655 839.6466,493.2681 889.8366,513.5381 " fill="none" id="COMP_App-to-MOD_APP_TaskSch" style="stroke:#181818;stroke-width:1.0;"/><polygon fill="#181818" points="895.4,515.785,888.5528,508.7058,890.7638,513.9126,885.557,516.1236,895.4,515.785" style="stroke:#181818;stroke-width:1.0;"/></g><!--link COMP_App to MOD_APP_ClkConfig--><g id="link_COMP_App_MOD_APP_ClkConfig"><path d="M732.54,439.775 C806.53,455.815 943.68,486.285 1059.7,516.215 C1065.44,517.695 1065.5607,517.6888 1071.5107,519.3088 " fill="none" id="COMP_App-to-MOD_APP_ClkConfig" style="stroke:#181818;stroke-width:1.0;"/><polygon fill="#181818" points="1077.3,520.885,1069.6669,514.6611,1072.4756,519.5715,1067.5653,522.3802,1077.3,520.885" style="stroke:#181818;stroke-width:1.0;"/></g><!--link COMP_Service to MOD_SERVICE_Uds--><g id="link_COMP_Service_MOD_SERVICE_Uds"><path d="M1535.2,452.695 C1495.53,471.165 1446.4491,494.012 1404.8991,513.362 " fill="none" id="COMP_Service-to-MOD_SERVICE_Uds" style="stroke:#181818;stroke-width:1.0;"/><polygon fill="#181818" points="1399.46,515.895,1409.3073,515.7216,1403.9926,513.7842,1405.93,508.4694,1399.46,515.895" style="stroke:#181818;stroke-width:1.0;"/></g><!--link COMP_Service to MOD_SERVICE_FuSa--><g id="link_COMP_Service_MOD_SERVICE_FuSa"><path d="M1567.4,456.615 C1554.44,474.715 1541.2036,493.197 1528.2836,511.237 " fill="none" id="COMP_Service-to-MOD_SERVICE_FuSa" style="stroke:#181818;stroke-width:1.0;"/><polygon fill="#181818" points="1524.79,516.115,1533.2824,511.127,1527.7013,512.05,1526.7783,506.4689,1524.79,516.115" style="stroke:#181818;stroke-width:1.0;"/></g><!--link COMP_Service to MOD_SERVICE_Security--><g id="link_COMP_Service_MOD_SERVICE_Security"><path d="M1608,456.615 C1620.96,474.715 1634.1964,493.197 1647.1164,511.237 " fill="none" id="COMP_Service-to-MOD_SERVICE_Security" style="stroke:#181818;stroke-width:1.0;"/><polygon fill="#181818" points="1650.61,516.115,1648.6217,506.4689,1647.6987,512.05,1642.1176,511.127,1650.61,516.115" style="stroke:#181818;stroke-width:1.0;"/></g><!--link COMP_Hal to MOD_HAL_ClkConfig--><g id="link_COMP_Hal_MOD_HAL_ClkConfig"><path d="M1892.49,456.615 C1884.06,474.715 1875.7152,492.6369 1867.3052,510.6769 " fill="none" id="COMP_Hal-to-MOD_HAL_ClkConfig" style="stroke:#181818;stroke-width:1.0;"/><polygon fill="#181818" points="1864.77,516.115,1872.1982,509.648,1866.8826,511.5833,1864.9474,506.2677,1864.77,516.115" style="stroke:#181818;stroke-width:1.0;"/></g><!--link COMP_Hal to MOD_HAL_PinIOsSensing--><g id="link_COMP_Hal_MOD_HAL_PinIOsSensing"><path d="M1936.77,456.615 C1956.6,474.715 1977.7589,494.0296 1997.5189,512.0696 " fill="none" id="COMP_Hal-to-MOD_HAL_PinIOsSensing" style="stroke:#181818;stroke-width:1.0;"/><polygon fill="#181818" points="2001.95,516.115,1998.0003,507.0928,1998.2574,512.7438,1992.6064,513.001,2001.95,516.115" style="stroke:#181818;stroke-width:1.0;"/></g><!--link COMP_Os to MOD_Rtos_Modules--><g id="link_COMP_Os_MOD_Rtos_Modules"><path d="M2126.36,456.615 C2145.65,477.125 2167.1796,500.0241 2184.6996,518.6541 " fill="none" id="COMP_Os-to-MOD_Rtos_Modules" style="stroke:#181818;stroke-width:1.0;"/><polygon fill="#181818" points="2188.81,523.025,2185.5583,513.7284,2185.3846,519.3826,2179.7305,519.209,2188.81,523.025" style="stroke:#181818;stroke-width:1.0;"/></g><!--link COMP_Drv to MOD_DRIVERS_ClkConfig--><g id="link_COMP_Drv_MOD_DRIVERS_ClkConfig"><path d="M2398.7,449.515 C2398.7,468.205 2398.7,489.555 2398.7,510.065 " fill="none" id="COMP_Drv-to-MOD_DRIVERS_ClkConfig" style="stroke:#181818;stroke-width:1.0;"/><polygon fill="#181818" points="2398.7,516.065,2402.7,507.065,2398.7,511.065,2394.7,507.065,2398.7,516.065" style="stroke:#181818;stroke-width:1.0;"/></g><!--link COMP_Drv to MOD_DRIVERS_PinIOsSensing--><g id="link_COMP_Drv_MOD_DRIVERS_PinIOsSensing"><path d="M2431.9,449.515 C2460.98,468.145 2498.4377,492.1285 2530.4077,512.6085 " fill="none" id="COMP_Drv-to-MOD_DRIVERS_PinIOsSensing" style="stroke:#181818;stroke-width:1.0;"/><polygon fill="#181818" points="2535.46,515.845,2530.0393,507.6221,2531.2498,513.1479,2525.724,514.3585,2535.46,515.845" style="stroke:#181818;stroke-width:1.0;"/></g><!--SRC=[ZLNVRzem47xtNs6f3pmXKIZhEcsJqYIedSgeSDkfAXDoW-ayWetiq5_h_lVPn7QIsZ3ybhllkplxxhwqslh0AtoV4vWGcGcwAYXdK9j1QtJ_csG5Z7dEXOI850Lb3q0kA5jXWPTmHkPudHS3pehlU4bW92ZEmtv4NmayxDQSZCy8_0EWEgSuMpm8lcQpJIfuyF4uJWTHwUDYHeInTpO7_0KW9m-4pM31L-3j2pJ7r0ihYpgcUlW6tk2GPe9dgXp1yvm8PVnyht9_EeWw_Mut-GhtE3eEUf45MLRqazvn9pdTctw1N-h91sdQFpdPcntpvOepmWeN8EqCrDaxm93FrghVZjrD1yd-wQzfBVEnofiSxSszekobklOWxiJxFffgTjbo05hbq2PaJXc1cy6Rg-6mFMat3hX3joXAfi_FpnE6-BnumeByX5YDyosQeYTeUhSjQjcgTjkB-YCkVPjO5z5jEbRHCcYQ2UvEqGyFS2gVAi0mZYuyn333kODiASdrNy9t9KL9kzCvdB1ejSffXlKcRsB7e-7bL1cXcHI7xQet8UAHPgJ26OE7xKtOMNHHuSvqfUymHnCsGXLa93r47oQ2FX8XArGY7XriovNBYPL-RysLosiFCItlEnmbK_q1pMmtWEhEqUMbXEUC5agkw6lrJfgdV5Fj2dBL6rnITZxIOiYa4iC6hNGfZt84wUfvK84B0eSu-wKks62ZPP3Jdx2v86HyDKBmVLyjTLnmMRRNvt-Oi2ii5n0hjKJPBw8Via7MNkK8aeydBCvvje28huMQYPYpEMrUEiuNfTKBq2sxSfqWHq3f-EOyJgVNCnc4gzuCrWXxU6qC4dfwWBEreCMBHx8EZzWh2zjrCpNfEsxMAqlTCWgQwqP1DcR1TT8CjEFe3axjbBzFr_z_lSdu_2OTenqrztVMRFdXkkrQ6edznYcJwjTRgfUtbKPOs-slbIxwHgM5lb7BdqrMAg_B5LOzdQyINnt8QXse9DUPZRJLN9LFoLc8CfAWfipEh3NB5bhzZrsnGRq2BRt0nWUS9kkOLh1ygvMZiAUkE644MeRjHZB2JYC9OQSRCJKMqFuiwfUoDakgBVrkWDxotGYxqZgrMhD6sZFJ7szzm-x6fEjuRYk1_NTPU7qvDTBymHfmFH0MxotZTaYpYbRxV-SV]--></g></svg>